<svg width="131" height="39" viewBox="0 0 131 39" fill="none" xmlns="http://www.w3.org/2000/svg">
<path d="M130.794 19.6C130.794 30.2 122.194 38.9 111.494 38.9C100.894 38.9 92.1939 30.3 92.1939 19.6C92.1939 8.90001 100.794 0.300018 111.494 0.300018C122.194 0.300018 130.794 8.90001 130.794 19.6Z" fill="white"/>
<path d="M3.09389 25.8C2.29389 25.4 2.09389 24.4 2.59389 23.7C7.09389 16.8 14.7939 12.8 22.8939 13.4C32.1939 14.1 37.6939 20.5 39.6939 23.5C40.1939 24.2 39.9939 25.2 39.1939 25.7C38.4939 26.1 37.6939 25.9 37.1939 25.2C35.4939 22.7 30.5939 17 22.5939 16.4C15.6939 15.9 8.89389 19.4 5.09389 25.4C4.59389 26 3.79389 26.2 3.09389 25.8Z" fill="#3DB54A" stroke="white" stroke-width="3" stroke-miterlimit="10"/>
</svg>
